#!OML:ASF G:\acrobat\cartwheel_test\acrobat_wednesday\Session 1\acrobatwednesday.ASF
:FULLY-SPECIFIED
:DEGREES
309
root 13.1129 13.4628 -9.37167 58.3622 -35.9312 -334.962
lowerback 30.2182 -5.17904 13.526
upperback 5.54764 -1.80829 5.11559
thorax -9.59424 -1.16548 -1.03412
lowerneck -27.8787 -2.23299 -1.25466
upperneck 9.36656 -3.43147 4.86113
head 7.41161 -1.2062 1.36056
rclavicle -9.06458e-014 -2.54444e-014
rhumerus 0.839225 0.69818 -49.7069
rradius 32.7599
rwrist 16.6095
rhand -28.2092 7.67734
rfingers 7.12502
rthumb -1.58797 -22.2965
lclavicle -9.06458e-014 -2.54444e-014
lhumerus 0.215241 4.71279 68.0789
lradius 26.1406
lwrist 44.0061
lhand -32.66 -25.3547
lfingers 7.12502
lthumb -5.88595 4.54358
rfemur -123.032 -13.0811 33.006
rtibia 76.8623
rfoot 25.5128 23.8646
rtoes -64.0275
lfemur -37.8601 -2.1069 -10.8452
ltibia 12.8723
lfoot -5.49773 -18.6346
ltoes 16.1127
310
root 13.1649 13.4756 -9.44618 58.6917 -33.2944 -336.323
lowerback 30.7847 -5.17969 13.6265
upperback 5.45973 -1.6715 4.96697
thorax -9.91252 -1.12002 -1.26222
lowerneck -27.6811 -2.09098 -0.964134
upperneck 9.31441 -3.31299 4.70938
head 7.35277 -1.15567 1.28077
rclavicle 1.59028e-015 -3.26007e-014
rhumerus 0.917129 0.0371938 -49.4991
rradius 32.9466
rwrist 16.4337
rhand -26.7643 7.93691
rfingers 7.12502
rthumb -0.192459 -22.0427
lclavicle 1.59028e-015 -3.26007e-014
lhumerus -0.212778 4.17784 68.8393
lradius 26.6651
lwrist 44.5085
lhand -32.5054 -25.553
lfingers 7.12502
lthumb -5.73672 4.34937
rfemur -121.968 -13.1986 33.2634
rtibia 76.768
rfoot 25.2357 24.0094
rtoes -63.8849
lfemur -37.8381 -2.04503 -10.0622
ltibia 12.4306
lfoot -7.3013 -17.3652
ltoes 23.3522
311
root 13.2134 13.4891 -9.50973 58.8541 -31.0326 -337.36
lowerback 31.0743 -5.131 13.2885
upperback 5.51342 -1.69398 4.67375
thorax -9.9857 -1.119 -1.38714
lowerneck -27.6094 -1.83694 -0.483728
upperneck 9.10484 -3.11049 4.57307
head 7.25577 -1.05796 1.18747
rclavicle -5.24792e-014 -5.56597e-015
rhumerus 1.00024 -0.780629 -49.489
rradius 33.0306
rwrist 16.3469
rhand -24.6454 8.47342
rfingers 7.12502
rthumb 1.85405 -21.4983
lclavicle -5.24792e-014 -5.56597e-015
lhumerus -0.178861 4.31561 69.5992
lradius 26.3274
lwrist 43.6703
lhand -32.4075 -25.7424
lfingers 7.12502
lthumb -5.64218 4.16252
rfemur -120.823 -13.4602 32.9838
rtibia 76.6036
rfoot 25.2703 23.586
rtoes -63.8397
lfemur -37.855 -2.21382 -9.73336
ltibia 12.2465
lfoot -8.53031 -15.0669
ltoes 31.7831
312
root 13.2591 13.5022 -9.56411 58.9814 -29.0503 -338.476
lowerback 31.3076 -4.95855 12.6118
upperback 5.67282 -1.70324 4.33867
thorax -9.92132 -1.09587 -1.39741
lowerneck -27.6766 -1.46119 0.228646
upperneck 8.84331 -2.80156 4.27418
head 7.15433 -0.916975 1.0173
rclavicle -5.88403e-014 -2.98177e-014
rhumerus 1.05368 -1.49935 -49.5277
rradius 33.152
rwrist 15.7159
rhand -23.7946 8.48185
rfingers 7.12502
rthumb 2.67574 -21.4811
lclavicle -5.88403e-014 -2.98177e-014
lhumerus 0.0750098 4.85517 70.3704
lradius 25.5559
lwrist 42.567
lhand -32.5865 -25.4658
lfingers 7.12502
lthumb -5.81503 4.43444
rfemur -119.59 -13.4872 32.6391
rtibia 76.4681
rfoot 25.6796 22.3343
rtoes -64.422
lfemur -37.672 -2.65787 -9.34413
ltibia 12.1336
lfoot -9.43093 -12.0168
ltoes 41.5448
313
root 13.2917 13.5149 -9.61752 59.0956 -27.0673 -340.097
lowerback 31.8483 -4.5202 11.6545
upperback 5.78987 -1.40225 4.25622
thorax -9.99376 -0.937187 -1.09551
lowerneck -27.5771 -1.08855 0.725485
upperneck 8.67482 -2.41375 3.94645
head 7.06294 -0.74846 0.882258
rclavicle 2.22639e-014 -5.48646e-014
rhumerus 0.875842 -1.97701 -49.3406
rradius 33.237
rwrist 14.5713
rhand -24.3646 7.57206
rfingers 7.12502
rthumb 2.12527 -22.3971
lclavicle 2.22639e-014 -5.48646e-014
lhumerus 0.244968 5.91185 71.5228
lradius 24.3936
lwrist 41.344
lhand -32.9531 -25.5546
lfingers 7.12502
lthumb -6.16898 4.33562
rfemur -117.973 -12.9408 32.5979
rtibia 76.19
rfoot 25.5839 21.2233
rtoes -64.7893
lfemur -37.1127 -2.45863 -8.69987
ltibia 12.2816
lfoot -4.2618 -18.1921
ltoes 29.3188
314
root 13.3175 13.5395 -9.66454 58.9407 -25.0966 -341.767
lowerback 32.8445 -4.40635 11.3053
upperback 5.70125 -1.28324 3.67666
thorax -10.3814 -0.89036 -1.49962
lowerneck -27.5431 -0.778544 1.10396
upperneck 8.63694 -2.16031 4.15619
head 7.04168 -0.590032 0.927587
rclavicle -1.59028e-015 3.89618e-014
rhumerus 0.397541 -2.53789 -49.8488
rradius 33.1202
rwrist 13.9064
rhand -25.8955 6.52079
rfingers 7.12502
rthumb 0.646654 -23.458
lclavicle -1.59028e-015 3.89618e-014
lhumerus -0.0157534 6.42645 71.8436
lradius 23.5353
lwrist 40.7946
lhand -33.3684 -25.6099
lfingers 7.12502
lthumb -6.56985 4.26822
rfemur -116.022 -12.3006 32.7667
rtibia 75.6998
rfoot 24.9345 20.786
rtoes -64.5506
lfemur -36.2988 -1.72624 -8.32363
ltibia 12.7721
lfoot 0.94621 -22.8954
ltoes 32.4941
315
root 13.3365 13.58 -9.70304 58.6807 -22.8786 -343.46
lowerback 34.0035 -4.12378 10.8071
upperback 5.64899 -0.948598 3.52195
thorax -10.8718 -0.747484 -1.50224
lowerneck -27.4549 -0.625919 1.10683
upperneck 8.3802 -1.97503 4.37368
head 6.94334 -0.484125 1.02449
rclavicle -3.33958e-014 -1.11319e-014
rhumerus -0.0857109 -3.15712 -49.8939
rradius 32.9272
rwrist 13.4562
rhand -28.3568 5.67087
rfingers 7.12502
rthumb -1.73048 -24.3019
lclavicle -3.33958e-014 -1.11319e-014
lhumerus -0.530415 6.7841 72.4707
lradius 23.1325
lwrist 40.6673
lhand -33.7702 -25.4164
lfingers 7.12502
lthumb -6.95775 4.44927
rfemur -113.914 -11.6066 33.4461
rtibia 74.9356
rfoot 24.1402 20.6077
rtoes -64.1589
lfemur -35.1974 -1.93586 -7.09652
ltibia 12.6525
lfoot -1.03555 -27.9263
ltoes 43.031
316
root 13.348 13.6283 -9.73642 58.5808 -20.4706 -345.193
lowerback 34.8898 -3.78942 10.3911
upperback 5.58216 -0.551525 3.53091
thorax -11.2607 -0.575906 -1.4109
lowerneck -27.434 -0.448284 0.997604
upperneck 8.11328 -1.7071 4.53114
head 6.84924 -0.347631 1.12963
rclavicle 6.67916e-014 1.72346e-013
rhumerus -0.623408 -3.56536 -49.7538
rradius 32.8064
rwrist 13.0523
rhand -28.9444 5.75116
rfingers 7.12502
rthumb -2.29806 -24.2162
lclavicle 6.67916e-014 1.72346e-013
lhumerus -1.25317 7.35332 73.176
lradius 23.0528
lwrist 40.5972
lhand -33.8826 -25.1043
lfingers 7.12502
lthumb -7.06625 4.75779
rfemur -111.929 -10.7249 34.5656
rtibia 73.9188
rfoot 23.6175 20.418
rtoes -64.0888
lfemur -33.9545 -2.99836 -4.92756
ltibia 11.5169
lfoot -7.7497 -31.7084
ltoes 54.6801
317
root 13.3916 13.6771 -9.77732 58.9883 -18.1509 -346.084
lowerback 34.386 -3.74372 10.3856
upperback 5.47553 -0.597063 3.15187
thorax -11.199 -0.593942 -1.81314
lowerneck -27.5478 -0.276008 1.24779
upperneck 7.75469 -1.55308 4.55307
head 6.74189 -0.268068 1.11743
rclavicle 3.49861e-014 -3.10104e-014
rhumerus -1.38475 -4.17274 -49.8067
rradius 32.6787
rwrist 13.2968
rhand -27.9297 6.13262
rfingers 7.12502
rthumb -1.31806 -23.8431
lclavicle 3.49861e-014 -3.10104e-014
lhumerus -1.83238 8.17094 73.6687
lradius 22.9732
lwrist 40.1825
lhand -33.7647 -24.7959
lfingers 7.12502
lthumb -6.95245 5.06989
rfemur -111.344 -10.4578 35.6169
rtibia 73.2284
rfoot 23.7409 20.3866
rtoes -64.5645
lfemur -33.9487 -4.07484 -3.48014
ltibia 10.3143
lfoot -9.67728 -34.7335
ltoes 57.491
318
root 13.4367 13.7289 -9.8151 59.2354 -16.0866 -346.596
lowerback 33.9241 -3.84329 10.3135
upperback 5.24168 -0.858024 2.51654
thorax -11.3244 -0.715801 -2.36989
lowerneck -27.4013 -0.145035 1.51027
upperneck 7.23829 -1.46753 4.7436
head 6.54857 -0.21239 1.14838
rclavicle 4.29375e-014 4.35338e-014
rhumerus -2.49568 -4.8681 -50.0401
rradius 32.5651
rwrist 14.0608
rhand -28.1092 5.98775
rfingers 7.12502
rthumb -1.49136 -23.9868
lclavicle 4.29375e-014 4.35338e-014
lhumerus -2.88862 8.05 73.6982
lradius 23.3065
lwrist 40.468
lhand -34.0806 -24.6114
lfingers 7.12502
lthumb -7.25735 5.24412
rfemur -110.889 -10.5687 36.2434
rtibia 72.6698
rfoot 23.7791 20.8322
rtoes -64.7201
lfemur -33.7902 -4.86703 -2.66733
ltibia 8.66625
lfoot -10.9128 -37.6411
ltoes 58.6867
319
root 13.4733 13.7849 -9.85248 59.4691 -14.075 -346.972
lowerback 33.3513 -3.91776 10.1444
upperback 5.06906 -1.13942 1.90068
thorax -11.4575 -0.84639 -2.88614
lowerneck -27.2132 0.00447707 1.63781
upperneck 6.73682 -1.30873 4.9659
head 6.35476 -0.123216 1.21975
rclavicle 7.95139e-015 2.43511e-014
rhumerus -3.68203 -5.75281 -50.2759
rradius 32.4329
rwrist 14.7387
rhand -28.6367 7.19961
rfingers 7.12502
rthumb -2.00085 -22.7708
lclavicle 7.95139e-015 2.43511e-014
lhumerus -4.16396 7.06289 73.5504
lradius 23.9747
lwrist 41.5712
lhand -34.3575 -24.4601
lfingers 7.12502
lthumb -7.52464 5.38608
rfemur -110.437 -10.8059 36.5676
rtibia 72.1268
rfoot 23.6628 21.2023
rtoes -64.3968
lfemur -33.6395 -5.34612 -1.93238
ltibia 6.79483
lfoot -16.7903 -39.1229
ltoes 61.5961
